<svg width="1264" height="834" viewBox="0 0 1264 834" fill="none" xmlns="http://www.w3.org/2000/svg">
<rect width="1263" height="832.149" fill="#222121"/>
<path d="M1155.47 631.344L1146.33 476.912L1061.03 400.333L1015.99 209.739L862.41 152.731L827.682 0.85083H1263V833H1155.47L1015.99 729.194L1155.47 631.344Z" fill="#3E5341" stroke="#C3F8C8"/>
<path d="M189.481 599.437C148.558 599.437 53.676 612.54 1.52319 664.954V832.575H697.3L594.335 749.615L438.059 733.023L466.999 563.7L345.452 442.877L244.009 464.149L189.481 599.437Z" fill="#1E4F64" stroke="#DFDAFF"/>
<path d="M60.28 100.12L25.64 79.64V74.76L60.04 56.44V64.68L34.92 77.32L60.28 91.32V100.12ZM75 106.44L66.68 102.84L91.32 49.64L99.48 53.8L75 106.44ZM106.04 100.12V91.56L131.32 77.32L106.2 64.68V56.44L140.68 74.76V79.64L106.04 100.12Z" fill="white"/>
</svg>
